<svg xmlns="http://www.w3.org/2000/svg" width="256" height="256"><path fill-opacity=".016" d="M0 128.004v128.004l128.25-.254 128.25-.254.254-127.75L257.008 0H0v128.004m.485.496c0 70.4.119 99.053.265 63.672.146-35.38.146-92.98 0-128C.604 29.153.485 58.1.485 128.5" fill="#1976D2" fill-rule="evenodd"/><path fill-opacity=".259" d="M4.901 2.288C2.816 3.693 1.262 5.718.872 7.538.522 9.167.183 63.923.118 129.217L0 247.933l3.533 3.534L7.067 255l120.216-.004c116.941-.003 120.303-.056 123.378-1.931 1.738-1.06 3.456-2.858 3.817-3.996.361-1.138 1.076-2.069 1.589-2.069.572 0 .933-46.088.933-119.059 0-79.118-.335-118.852-1-118.441-.55.34-1.014-.196-1.032-1.191-.038-2.191-1.637-4.328-4.941-6.605C247.752.136 241.621 0 173.263 0H98.971l-3.736 3.422L91.5 6.843l-.295 28.084c-.248 23.68-.052 28.593 1.25 31.337C95.462 72.601 94.39 72.451 140.5 73l42 .5.5 42.333.5 42.333 3.266 2.917 3.266 2.917 28.734-.004c26.766-.003 28.954-.138 31.946-1.962 1.968-1.2 3.578-3.231 4.159-5.246.686-2.377.963 1.836.999 15.212.046 16.872-.08 18.26-1.429 15.775-.813-1.499-2.483-3.299-3.71-4-1.742-.996-21.389-1.384-89.731-1.775l-87.5-.5-.5-87.832-.5-87.833-3.266-2.917L65.968 0H37.132C8.743 0 8.243.035 4.901 2.288M.484 129c0 65.725.12 92.612.266 59.75.146-32.863.146-86.638 0-119.5C.604 36.387.484 63.275.484 129m94.798-34.614-3.782 3.47.007 29.56.006 29.559 3.262 3.263 3.261 3.262 29.539.293 29.539.293 3.293-3.293c3.28-3.28 3.297-3.346 4.022-16.084.401-7.034.403-20.487.005-29.895-.712-16.824-.769-17.158-3.495-20.21l-2.772-3.104-29.552-.293-29.552-.292-3.781 3.471" fill="#1976D2" fill-rule="evenodd"/><path fill-opacity=".29" d="M9.887.72c-2.379.253-4.599 1.413-6.5 3.398L.5 7.131v240.83l3.269 3.269 3.269 3.27 114.731.301c63.102.165 117.622.009 121.156-.348 5.227-.529 6.953-1.177 9.25-3.474l2.825-2.825v-59.78l-3.065-2.937-3.066-2.937-87.934-.276L73 181.947V95.424c0-95.957.335-91.132-6.534-94.003C63.795.305 57.737.036 38.282.168 24.652.261 11.874.509 9.887.72m85.014 3.386L92 7.212v58.942l2.756 2.756c2.738 2.738 2.876 2.761 20.25 3.42 9.622.365 28.857.665 42.744.667L183 73v41.066c0 28.275.348 41.746 1.117 43.25 2.881 5.633 2.909 5.638 35.21 5.662l29.827.022 2.923-2.923 2.923-2.923V6.846l-2.923-2.923L249.154 1H97.802l-2.901 3.106M96.75 93.08C92.391 95.619 92 98.45 92 127.5c0 29.551.369 32.022 5.172 34.592 1.466.785 11.245 1.178 30.739 1.237 25.467.077 28.872-.102 31.185-1.635 4.64-3.078 4.904-4.949 4.904-34.706V99.07l-3.104-3.535L157.793 92l-29.647.03c-18.269.019-30.318.422-31.396 1.05" fill="#1976D2" fill-rule="evenodd"/><path fill-opacity=".371" d="M3.923 3.923 1 6.846v241.308l2.923 2.923L6.846 254h242.308l2.923-2.923 2.923-2.923v-59.308l-2.923-2.923-2.923-2.923H73.325l-.667-88.25L71.99 6.5l-3.011-2.75L65.968 1H6.846L3.923 3.923" fill="#1976D2" fill-rule="evenodd"/></svg>